<svg version="1.0" xmlns="http://www.w3.org/2000/svg"
 width="868.000000pt" height="776.000000pt" viewBox="0 0 868.000000 776.000000"
 preserveAspectRatio="xMidYMid meet">

<g transform="translate(0.000000,776.000000) scale(0.100000,-0.100000)"
fill="#000000" stroke="none">
<path d="M0 3880 l0 -3880 4340 0 4340 0 0 3880 0 3880 -4340 0 -4340 0 0
-3880z m3250 2003 c90 -24 178 -80 266 -167 68 -68 89 -96 126 -176 51 -106
73 -185 88 -310 57 -475 -172 -1221 -578 -1885 -55 -90 -174 -266 -214 -317
-12 -15 -20 -29 -17 -30 2 -2 45 -23 94 -46 143 -69 304 -162 320 -185 48 -68
-28 -179 -107 -156 -16 4 -64 28 -106 52 -82 47 -256 135 -309 156 l-33 13
-91 -86 c-113 -106 -193 -159 -282 -188 -61 -20 -74 -21 -145 -11 -150 22
-255 91 -312 206 -55 110 -39 219 45 303 71 71 137 95 281 102 120 5 199 -7
361 -54 l87 -25 18 23 c36 45 176 254 230 343 263 429 457 914 534 1340 26
138 26 430 1 529 -27 105 -74 193 -142 262 -84 85 -155 118 -264 123 -153 6
-309 -39 -550 -160 -747 -375 -1542 -1178 -1742 -1759 -30 -86 -33 -106 -34
-215 0 -109 2 -125 26 -175 61 -127 193 -209 411 -254 84 -17 306 -36 434 -36
95 0 128 -18 138 -74 8 -43 -14 -100 -45 -116 -37 -21 -409 -7 -540 19 -310
62 -494 180 -584 376 -96 206 -68 432 91 754 294 596 1069 1325 1769 1666 331
160 579 211 775 158z m4740 -1340 c17 -14 36 -37 41 -50 11 -29 -33 -238 -122
-592 -33 -129 -58 -236 -56 -237 5 -6 187 57 310 107 l109 43 36 -19 c47 -25
78 -83 65 -123 -5 -15 -24 -36 -41 -48 -41 -28 -274 -116 -428 -162 l-124 -37
-25 -85 c-332 -1119 -728 -1829 -1130 -2027 -90 -45 -150 -58 -255 -57 -134 1
-231 37 -368 137 -193 141 -460 503 -562 765 -203 516 60 873 811 1103 l107
32 -32 21 c-18 12 -44 46 -61 81 -28 56 -30 67 -30 175 1 63 4 129 8 145 7 26
-2 19 -70 -51 -43 -44 -126 -132 -185 -196 -137 -148 -192 -175 -259 -127 -33
23 -54 85 -44 131 l7 30 -63 -36 c-190 -109 -318 -161 -368 -149 -63 15 -106
72 -117 158 l-7 44 -57 -44 c-128 -98 -271 -155 -392 -155 -103 0 -151 32
-172 114 l-11 44 -65 -27 c-164 -70 -350 -121 -438 -121 -67 1 -149 37 -186
83 -29 36 -31 44 -31 120 0 72 4 90 33 150 50 103 145 223 187 237 19 6 40 8
47 4 7 -5 1 7 -14 25 -39 45 -37 88 7 167 73 130 189 224 278 224 56 0 97 -43
97 -102 0 -56 -8 -66 -72 -98 -45 -22 -62 -39 -113 -114 -64 -93 -82 -109
-125 -108 l-27 1 28 -29 c45 -44 40 -83 -21 -165 -67 -90 -87 -124 -96 -159
l-7 -29 59 6 c67 7 245 66 385 127 88 39 211 107 339 186 66 41 118 57 185 57
56 0 126 -28 163 -63 l23 -22 43 46 c48 52 79 58 131 26 53 -33 59 -59 40
-194 -26 -184 -37 -178 152 -72 89 50 189 106 222 124 59 31 62 36 116 141 43
85 62 112 89 126 33 18 34 18 79 -4 64 -31 80 -76 51 -146 -4 -11 32 19 80 67
61 62 107 97 153 120 63 31 66 31 106 17 91 -31 105 -103 61 -306 -14 -65 -28
-155 -31 -200 -6 -77 -5 -83 13 -83 24 0 108 55 204 136 98 82 150 137 190
204 134 223 413 454 623 515 59 17 162 22 215 10 29 -6 34 -2 94 72 98 121
122 143 156 143 18 0 43 -11 62 -27z"/>
<path d="M2221 2950 c-84 -18 -111 -53 -83 -109 40 -83 174 -116 271 -67 56
29 166 126 154 136 -29 28 -269 55 -342 40z"/>
<path d="M7499 4140 c-91 -27 -259 -148 -363 -261 -62 -66 -140 -179 -151
-217 -7 -23 -6 -23 29 -8 65 27 130 79 257 206 135 135 276 291 263 289 -5 0
-21 -4 -35 -9z"/>
<path d="M7530 3850 c-198 -200 -322 -303 -434 -360 -34 -17 -50 -28 -36 -25
91 18 519 119 538 126 12 5 22 11 22 14 0 4 25 103 56 221 30 119 54 217 52
219 -2 1 -91 -87 -198 -195z"/>
<path d="M4908 3695 c-20 -6 -53 -26 -74 -43 -42 -35 -107 -112 -100 -120 11
-10 112 33 180 78 82 53 91 63 73 77 -23 19 -43 21 -79 8z"/>
<path d="M6733 3436 c-45 -33 -81 -62 -79 -63 1 -2 72 14 157 34 138 34 150
38 113 43 -22 3 -56 15 -75 26 l-34 20 -82 -60z"/>
<path d="M7305 3309 c-751 -174 -1022 -250 -1274 -355 -187 -79 -281 -142
-357 -239 -62 -81 -79 -138 -78 -265 1 -85 6 -120 28 -183 97 -286 373 -645
572 -743 91 -46 196 -57 285 -30 342 100 697 699 1022 1724 38 119 42 142 28
141 -9 -1 -110 -23 -226 -50z"/>
</g>
</svg>
